<?xml version="1.0" encoding="UTF-8" standalone="no"?>
<!DOCTYPE svg PUBLIC "-//W3C//DTD SVG 1.1//EN"
 "http://www.w3.org/Graphics/SVG/1.1/DTD/svg11.dtd">
<!-- Generated by graphviz version 2.40.1 (20161225.0304)
 -->
<!-- Title: state transitions Pages: 1 -->
<svg width="204pt" height="680pt"
 viewBox="0.00 0.00 204.00 680.00" xmlns="http://www.w3.org/2000/svg" xmlns:xlink="http://www.w3.org/1999/xlink">
<g id="graph0" class="graph" transform="scale(1 1) rotate(0) translate(4 676)">
<title>state transitions</title>
<polygon fill="#ffffff" stroke="transparent" points="-4,4 -4,-676 200,-676 200,4 -4,4"/>
<g id="clust1" class="cluster state regular">
<title>cluster_next_pos</title>
<path fill="none" stroke="#000000" stroke-width="2" d="M20,-8C20,-8 176,-8 176,-8 182,-8 188,-14 188,-20 188,-20 188,-652 188,-652 188,-658 182,-664 176,-664 176,-664 20,-664 20,-664 14,-664 8,-658 8,-652 8,-652 8,-20 8,-20 8,-14 14,-8 20,-8"/>
<text text-anchor="start" x="73.6556" y="-645.2" font-family="Helvetica,sans-Serif" font-size="12.00" fill="#000000">next_pos</text>
</g>
<!-- next_pos -->
<!-- POS0 -->
<g id="node2" class="node state regular">
<title>POS0</title>
<polygon fill="#ffffff" fill-opacity="0.003922" stroke="transparent" stroke-width="2" points="101,-626 45,-626 45,-590 101,-590 101,-626"/>
<text text-anchor="start" x="56.9944" y="-604.2" font-family="Helvetica,sans-Serif" font-size="12.00" fill="#000000">POS0</text>
<path fill="none" stroke="#000000" stroke-width="2" d="M57.3333,-591C57.3333,-591 88.6667,-591 88.6667,-591 94.3333,-591 100,-596.6667 100,-602.3333 100,-602.3333 100,-613.6667 100,-613.6667 100,-619.3333 94.3333,-625 88.6667,-625 88.6667,-625 57.3333,-625 57.3333,-625 51.6667,-625 46,-619.3333 46,-613.6667 46,-613.6667 46,-602.3333 46,-602.3333 46,-596.6667 51.6667,-591 57.3333,-591"/>
</g>
<!-- POS1 -->
<g id="node3" class="node state regular">
<title>POS1</title>
<polygon fill="#ffffff" fill-opacity="0.003922" stroke="transparent" stroke-width="2" points="80,-544 24,-544 24,-508 80,-508 80,-544"/>
<text text-anchor="start" x="35.9944" y="-522.2" font-family="Helvetica,sans-Serif" font-size="12.00" fill="#000000">POS1</text>
<path fill="none" stroke="#000000" stroke-width="2" d="M36.3333,-509C36.3333,-509 67.6667,-509 67.6667,-509 73.3333,-509 79,-514.6667 79,-520.3333 79,-520.3333 79,-531.6667 79,-531.6667 79,-537.3333 73.3333,-543 67.6667,-543 67.6667,-543 36.3333,-543 36.3333,-543 30.6667,-543 25,-537.3333 25,-531.6667 25,-531.6667 25,-520.3333 25,-520.3333 25,-514.6667 30.6667,-509 36.3333,-509"/>
</g>
<!-- POS0&#45;&gt;POS1 -->
<g id="edge1" class="edge transition">
<title>POS0&#45;&gt;POS1</title>
<path fill="none" stroke="#000000" d="M68.3394,-589.8015C65.6478,-579.2915 62.2056,-565.8503 59.1753,-554.0177"/>
<polygon fill="#000000" stroke="#000000" points="62.5191,-552.9666 56.6476,-544.1476 55.738,-554.7033 62.5191,-552.9666"/>
<text text-anchor="start" x="63" y="-564" font-family="Helvetica,sans-Serif" font-size="10.00" fill="#000000">en &#160;= &#160;&#160;&#39;1&#39; &#160;&#160;</text>
</g>
<!-- POS2 -->
<g id="node4" class="node state regular">
<title>POS2</title>
<polygon fill="#ffffff" fill-opacity="0.003922" stroke="transparent" stroke-width="2" points="76,-462 20,-462 20,-426 76,-426 76,-462"/>
<text text-anchor="start" x="31.9944" y="-440.2" font-family="Helvetica,sans-Serif" font-size="12.00" fill="#000000">POS2</text>
<path fill="none" stroke="#000000" stroke-width="2" d="M32.3333,-427C32.3333,-427 63.6667,-427 63.6667,-427 69.3333,-427 75,-432.6667 75,-438.3333 75,-438.3333 75,-449.6667 75,-449.6667 75,-455.3333 69.3333,-461 63.6667,-461 63.6667,-461 32.3333,-461 32.3333,-461 26.6667,-461 21,-455.3333 21,-449.6667 21,-449.6667 21,-438.3333 21,-438.3333 21,-432.6667 26.6667,-427 32.3333,-427"/>
</g>
<!-- POS1&#45;&gt;POS2 -->
<g id="edge2" class="edge transition">
<title>POS1&#45;&gt;POS2</title>
<path fill="none" stroke="#000000" d="M51.1123,-507.8015C50.6048,-497.3976 49.9571,-484.1215 49.3842,-472.3768"/>
<polygon fill="#000000" stroke="#000000" points="52.8684,-471.9651 48.8852,-462.1476 45.8767,-472.3063 52.8684,-471.9651"/>
<text text-anchor="start" x="50" y="-482" font-family="Helvetica,sans-Serif" font-size="10.00" fill="#000000">en &#160;= &#160;&#160;&#39;1&#39; &#160;&#160;</text>
</g>
<!-- POS3 -->
<g id="node5" class="node state regular">
<title>POS3</title>
<polygon fill="#ffffff" fill-opacity="0.003922" stroke="transparent" stroke-width="2" points="73,-380 17,-380 17,-344 73,-344 73,-380"/>
<text text-anchor="start" x="28.9944" y="-358.2" font-family="Helvetica,sans-Serif" font-size="12.00" fill="#000000">POS3</text>
<path fill="none" stroke="#000000" stroke-width="2" d="M29.3333,-345C29.3333,-345 60.6667,-345 60.6667,-345 66.3333,-345 72,-350.6667 72,-356.3333 72,-356.3333 72,-367.6667 72,-367.6667 72,-373.3333 66.3333,-379 60.6667,-379 60.6667,-379 29.3333,-379 29.3333,-379 23.6667,-379 18,-373.3333 18,-367.6667 18,-367.6667 18,-356.3333 18,-356.3333 18,-350.6667 23.6667,-345 29.3333,-345"/>
</g>
<!-- POS2&#45;&gt;POS3 -->
<g id="edge3" class="edge transition">
<title>POS2&#45;&gt;POS3</title>
<path fill="none" stroke="#000000" d="M47.3342,-425.8015C46.9536,-415.3976 46.4679,-402.1215 46.0382,-390.3768"/>
<polygon fill="#000000" stroke="#000000" points="49.5273,-390.0129 45.6639,-380.1476 42.532,-390.2689 49.5273,-390.0129"/>
<text text-anchor="start" x="46" y="-400" font-family="Helvetica,sans-Serif" font-size="10.00" fill="#000000">en &#160;= &#160;&#160;&#39;1&#39; &#160;&#160;</text>
</g>
<!-- POS4 -->
<g id="node6" class="node state regular">
<title>POS4</title>
<polygon fill="#ffffff" fill-opacity="0.003922" stroke="transparent" stroke-width="2" points="73,-298 17,-298 17,-262 73,-262 73,-298"/>
<text text-anchor="start" x="28.9944" y="-276.2" font-family="Helvetica,sans-Serif" font-size="12.00" fill="#000000">POS4</text>
<path fill="none" stroke="#000000" stroke-width="2" d="M29.3333,-263C29.3333,-263 60.6667,-263 60.6667,-263 66.3333,-263 72,-268.6667 72,-274.3333 72,-274.3333 72,-285.6667 72,-285.6667 72,-291.3333 66.3333,-297 60.6667,-297 60.6667,-297 29.3333,-297 29.3333,-297 23.6667,-297 18,-291.3333 18,-285.6667 18,-285.6667 18,-274.3333 18,-274.3333 18,-268.6667 23.6667,-263 29.3333,-263"/>
</g>
<!-- POS3&#45;&gt;POS4 -->
<g id="edge4" class="edge transition">
<title>POS3&#45;&gt;POS4</title>
<path fill="none" stroke="#000000" d="M45,-343.8015C45,-333.3976 45,-320.1215 45,-308.3768"/>
<polygon fill="#000000" stroke="#000000" points="48.5001,-308.1476 45,-298.1476 41.5001,-308.1476 48.5001,-308.1476"/>
<text text-anchor="start" x="45" y="-318" font-family="Helvetica,sans-Serif" font-size="10.00" fill="#000000">en &#160;= &#160;&#160;&#39;1&#39; &#160;&#160;</text>
</g>
<!-- POS5 -->
<g id="node7" class="node state regular">
<title>POS5</title>
<polygon fill="#ffffff" fill-opacity="0.003922" stroke="transparent" stroke-width="2" points="80,-216 24,-216 24,-180 80,-180 80,-216"/>
<text text-anchor="start" x="35.9944" y="-194.2" font-family="Helvetica,sans-Serif" font-size="12.00" fill="#000000">POS5</text>
<path fill="none" stroke="#000000" stroke-width="2" d="M36.3333,-181C36.3333,-181 67.6667,-181 67.6667,-181 73.3333,-181 79,-186.6667 79,-192.3333 79,-192.3333 79,-203.6667 79,-203.6667 79,-209.3333 73.3333,-215 67.6667,-215 67.6667,-215 36.3333,-215 36.3333,-215 30.6667,-215 25,-209.3333 25,-203.6667 25,-203.6667 25,-192.3333 25,-192.3333 25,-186.6667 30.6667,-181 36.3333,-181"/>
</g>
<!-- POS4&#45;&gt;POS5 -->
<g id="edge5" class="edge transition">
<title>POS4&#45;&gt;POS5</title>
<path fill="none" stroke="#000000" d="M46.5535,-261.8015C47.4417,-251.3976 48.575,-238.1215 49.5776,-226.3768"/>
<polygon fill="#000000" stroke="#000000" points="53.0875,-226.4091 50.4508,-216.1476 46.1128,-225.8136 53.0875,-226.4091"/>
<text text-anchor="start" x="48" y="-236" font-family="Helvetica,sans-Serif" font-size="10.00" fill="#000000">en &#160;= &#160;&#160;&#39;1&#39; &#160;&#160;</text>
</g>
<!-- POS6 -->
<g id="node8" class="node state regular">
<title>POS6</title>
<polygon fill="#ffffff" fill-opacity="0.003922" stroke="transparent" stroke-width="2" points="84,-134 28,-134 28,-98 84,-98 84,-134"/>
<text text-anchor="start" x="39.9944" y="-112.2" font-family="Helvetica,sans-Serif" font-size="12.00" fill="#000000">POS6</text>
<path fill="none" stroke="#000000" stroke-width="2" d="M40.3333,-99C40.3333,-99 71.6667,-99 71.6667,-99 77.3333,-99 83,-104.6667 83,-110.3333 83,-110.3333 83,-121.6667 83,-121.6667 83,-127.3333 77.3333,-133 71.6667,-133 71.6667,-133 40.3333,-133 40.3333,-133 34.6667,-133 29,-127.3333 29,-121.6667 29,-121.6667 29,-110.3333 29,-110.3333 29,-104.6667 34.6667,-99 40.3333,-99"/>
</g>
<!-- POS5&#45;&gt;POS6 -->
<g id="edge6" class="edge transition">
<title>POS5&#45;&gt;POS6</title>
<path fill="none" stroke="#000000" d="M52.8877,-179.8015C53.3952,-169.3976 54.0429,-156.1215 54.6158,-144.3768"/>
<polygon fill="#000000" stroke="#000000" points="58.1233,-144.3063 55.1148,-134.1476 51.1316,-143.9651 58.1233,-144.3063"/>
<text text-anchor="start" x="54" y="-154" font-family="Helvetica,sans-Serif" font-size="10.00" fill="#000000">en &#160;= &#160;&#160;&#39;1&#39; &#160;&#160;</text>
</g>
<!-- POS7 -->
<g id="node9" class="node state regular">
<title>POS7</title>
<polygon fill="#ffffff" fill-opacity="0.003922" stroke="transparent" stroke-width="2" points="122,-52 66,-52 66,-16 122,-16 122,-52"/>
<text text-anchor="start" x="77.9944" y="-30.2" font-family="Helvetica,sans-Serif" font-size="12.00" fill="#000000">POS7</text>
<path fill="none" stroke="#000000" stroke-width="2" d="M78.3333,-17C78.3333,-17 109.6667,-17 109.6667,-17 115.3333,-17 121,-22.6667 121,-28.3333 121,-28.3333 121,-39.6667 121,-39.6667 121,-45.3333 115.3333,-51 109.6667,-51 109.6667,-51 78.3333,-51 78.3333,-51 72.6667,-51 67,-45.3333 67,-39.6667 67,-39.6667 67,-28.3333 67,-28.3333 67,-22.6667 72.6667,-17 78.3333,-17"/>
</g>
<!-- POS6&#45;&gt;POS7 -->
<g id="edge7" class="edge transition">
<title>POS6&#45;&gt;POS7</title>
<path fill="none" stroke="#000000" d="M63.2041,-97.9982C66.8307,-89.1844 71.3917,-78.4596 75.834,-69 77.0617,-66.3857 78.3781,-63.6826 79.7206,-60.9908"/>
<polygon fill="#000000" stroke="#000000" points="82.866,-62.527 84.2948,-52.029 76.6312,-59.3447 82.866,-62.527"/>
<text text-anchor="start" x="75" y="-72" font-family="Helvetica,sans-Serif" font-size="10.00" fill="#000000">en &#160;= &#160;&#160;&#39;1&#39; &#160;&#160;</text>
</g>
<!-- POS7&#45;&gt;POS0 -->
<g id="edge8" class="edge transition">
<title>POS7&#45;&gt;POS0</title>
<path fill="none" stroke="#000000" d="M120.0989,-52.06C126.2214,-58.403 131,-66.1791 131,-75 131,-567 131,-567 131,-567 131,-579.6492 121.6877,-588.7443 110.5259,-595.1026"/>
<polygon fill="#000000" stroke="#000000" points="108.7487,-592.0761 101.3204,-599.6306 111.8384,-598.3574 108.7487,-592.0761"/>
<text text-anchor="start" x="131" y="-318" font-family="Helvetica,sans-Serif" font-size="10.00" fill="#000000">en &#160;= &#160;&#160;&#39;1&#39; &#160;&#160;</text>
</g>
</g>
</svg>
